# xmcd
#
# Track frame offsets: 
#        150
#        15820
#        32175
#        45021
#        58526
#        70659
#        81048
#        94749
#        108084
#        123446
#
# Disc length: 1794 seconds
#
# Revision: 0
# Processed by: cddbd v1.5.1PL2 Copyright (c) Steve Scherf et al.
# Submitted via: ExactAudioCopy v0.95b3
#
DISCID=6707000a
DTITLE=Hiwassee Ridge - Ridge Cut
DYEAR=1996
DGENRE=Country
TTITLE0=Wild Horses
TTITLE1=She Once Lived Here
TTITLE2=Back When
TTITLE3=Blue Ridge
TTITLE4=Bill Cheatham
TTITLE5=Living with the Shades Pulled Down
TTITLE6=Just One More Time
TTITLE7=Man in the Middle
TTITLE8=If We Make It Thru December
TTITLE9=Darling Corey
EXTD=
EXTT0=
EXTT1=
EXTT2=
EXTT3=
EXTT4=
EXTT5=
EXTT6=
EXTT7=
EXTT8=
EXTT9=
PLAYORDER=
